<svg width="38" height="38" viewBox="0 0 38 38" fill="none" xmlns="http://www.w3.org/2000/svg">
<path d="M18.7944 37.9021C29.1743 37.9021 37.5888 29.4174 37.5888 18.951C37.5888 8.48467 29.1743 0 18.7944 0C8.41455 0 0 8.48467 0 18.951C0 29.4174 8.41455 37.9021 18.7944 37.9021Z" fill="#1769FF"/>
<path d="M13.2762 10.3633C14.0866 10.3633 14.8263 10.4361 15.4954 10.5801C16.1645 10.7241 16.7359 10.9606 17.2125 11.2896C17.6891 11.6186 18.059 12.0552 18.3221 12.601C18.5852 13.1468 18.716 13.82 18.716 14.622C18.716 15.4876 18.5206 16.2093 18.1312 16.7869C17.7417 17.3646 17.1644 17.8376 16.4021 18.206C17.4516 18.5107 18.2349 19.0444 18.7521 19.8054C19.2693 20.5665 19.528 21.4853 19.528 22.5602C19.528 23.4258 19.3611 24.1763 19.0273 24.81C18.6935 25.4438 18.2439 25.9607 17.6786 26.361C17.1133 26.7627 16.4697 27.0584 15.7465 27.2509C15.0188 27.4435 14.2685 27.5405 13.5168 27.539H5.26074V10.3633H13.2762ZM12.7996 17.3145C13.4671 17.3145 14.0159 17.1538 14.4459 16.8339C14.876 16.5125 15.091 15.9925 15.0895 15.2708C15.0895 14.8706 15.0173 14.5416 14.8745 14.2854C14.7316 14.0292 14.5407 13.8275 14.3016 13.6835C14.0625 13.5395 13.7889 13.4394 13.4792 13.3833C13.1604 13.3272 12.8371 13.2984 12.5124 13.2999H9.0076V17.3176L12.7996 17.3145ZM13.0146 24.6023C13.3679 24.6038 13.7197 24.5675 14.064 24.4947C14.3978 24.4219 14.6925 24.3021 14.9466 24.1339C15.2007 23.9656 15.4037 23.7366 15.5556 23.4486C15.7059 23.1605 15.7826 22.7906 15.7826 22.3419C15.7826 21.461 15.536 20.8303 15.0429 20.4543C14.5497 20.0768 13.8972 19.8888 13.0867 19.8888H9.0076V24.6038L13.0146 24.6023ZM24.2401 24.2415C24.7483 24.7388 25.4805 24.9874 26.4353 24.9874C27.1194 24.9874 27.7073 24.8146 28.2005 24.4704C28.6936 24.1263 28.9958 23.7609 29.1071 23.3758H32.0886C31.612 24.8676 30.8798 25.9335 29.8935 26.5748C28.9071 27.2161 27.7148 27.5375 26.315 27.5375C25.3452 27.5375 24.4701 27.3813 23.6913 27.069C22.9125 26.7567 22.2524 26.311 21.7111 25.7333C21.1698 25.1557 20.7519 24.4674 20.4587 23.6654C20.1655 22.8634 20.0181 21.981 20.0181 21.0198C20.0181 20.0905 20.1685 19.2248 20.4707 18.4228C20.7729 17.6208 21.2029 16.9279 21.7592 16.3427C22.3155 15.7575 22.9801 15.2966 23.7514 14.96C24.5228 14.6235 25.3783 14.4552 26.3165 14.4552C27.366 14.4552 28.2801 14.6599 29.0605 15.0692C29.8393 15.4785 30.4798 16.0274 30.9805 16.7172C31.4812 17.407 31.8436 18.1923 32.0661 19.0747C32.2886 19.9571 32.3683 20.8788 32.3052 21.8415H23.4071C23.4537 22.9437 23.7319 23.7457 24.2401 24.2415ZM28.0696 17.6996C27.6637 17.2508 27.0472 17.0265 26.2203 17.0265C25.679 17.0265 25.2294 17.1189 24.8731 17.3024C24.5152 17.4874 24.2296 17.7148 24.0146 17.9877C23.7996 18.2606 23.6492 18.5486 23.562 18.8533C23.4748 19.1581 23.4222 19.431 23.4071 19.6705H28.9176C28.7568 18.8063 28.4741 18.1484 28.0696 17.6996ZM22.8268 11.235H29.7115V13.1605H22.8268V11.235Z" fill="white"/>
</svg>
