<svg width="71" height="73" viewBox="0 0 71 73" fill="none" xmlns="http://www.w3.org/2000/svg">
<g clip-path="url(#clip0_115_186)">
<rect x="0.300903" width="70" height="72.6709" rx="15.8988" fill="#1E1E1E"/>
<g clip-path="url(#clip1_115_186)">
<path d="M36.0699 36.1696C36.0699 34.1667 36.8656 32.2458 38.2818 30.8296C39.6981 29.4133 41.619 28.6177 43.6219 28.6177C45.6247 28.6177 47.5456 29.4133 48.9619 30.8296C50.3781 32.2458 51.1738 34.1667 51.1738 36.1696C51.1738 38.1725 50.3781 40.0933 48.9619 41.5096C47.5456 42.9258 45.6247 43.7215 43.6219 43.7215C41.619 43.7215 39.6981 42.9258 38.2818 41.5096C36.8656 40.0933 36.0699 38.1725 36.0699 36.1696V36.1696Z" fill="#1ABCFE"/>
<path d="M20.968 51.2724C20.968 49.2695 21.7637 47.3486 23.1799 45.9324C24.5962 44.5161 26.517 43.7205 28.5199 43.7205H36.0718V51.2724C36.0718 53.2753 35.2762 55.1961 33.8599 56.6124C32.4437 58.0286 30.5228 58.8243 28.5199 58.8243C26.517 58.8243 24.5962 58.0286 23.1799 56.6124C21.7637 55.1961 20.968 53.2753 20.968 51.2724V51.2724Z" fill="#0ACF83"/>
<path d="M36.0699 13.5137V28.6175H43.6219C45.6247 28.6175 47.5456 27.8218 48.9619 26.4056C50.3781 24.9893 51.1738 23.0685 51.1738 21.0656C51.1738 19.0627 50.3781 17.1418 48.9619 15.7256C47.5456 14.3093 45.6247 13.5137 43.6219 13.5137H36.0699Z" fill="#FF7262"/>
<path d="M20.9683 21.0656C20.9683 23.0685 21.7639 24.9893 23.1802 26.4056C24.5964 27.8218 26.5173 28.6175 28.5202 28.6175H36.0721V13.5137H28.5202C26.5173 13.5137 24.5964 14.3093 23.1802 15.7256C21.7639 17.1418 20.9683 19.0627 20.9683 21.0656V21.0656Z" fill="#F24E1E"/>
<path d="M20.968 36.1696C20.968 38.1725 21.7637 40.0933 23.1799 41.5096C24.5962 42.9258 26.517 43.7215 28.5199 43.7215H36.0718V28.6177H28.5199C26.517 28.6177 24.5962 29.4133 23.1799 30.8296C21.7637 32.2458 20.968 34.1667 20.968 36.1696V36.1696Z" fill="#A259FF"/>
</g>
</g>
<defs>
<clipPath id="clip0_115_186">
<rect x="0.300903" width="70" height="72.6709" rx="15.8988" fill="white"/>
</clipPath>
<clipPath id="clip1_115_186">
<rect width="30.2076" height="45.3114" fill="white" transform="translate(20.9688 13.5137)"/>
</clipPath>
</defs>
</svg>
